<svg id="circuito-svg" xmlns="http://www.w3.org/2000/svg" viewBox="0 0 1000 400">
        <defs>
            <radialGradient id="cargaGradient" cx="50%" cy="50%" r="50%">
                <stop offset="0%" style="stop-color:rgb(0, 255, 255);stop-opacity:1" />
                <stop offset="100%" style="stop-color:rgb(0, 255, 255);stop-opacity:0" />
            </radialGradient>
        </defs>

        <path
       class="neon-stroke"
       d="m 289.4384,103.76237 -0.39673,89.22543"
       id="path7-4" /><!--I 1-->
     <path
       class="neon-stroke"
       d="m 296.81977,103.47392 -0.39674,89.22542"
       id="path7" /><!--I 2-->
       <path
       class="neon-stroke"
       d="m 304.07988,103.26726 -0.39675,89.22542"
       id="path7-7" /><!--I 3-->
       <path
       class="neon-stroke"
       d="m 311.41232,103.06979 -0.39675,89.22541"
       id="path7-2" /><!--I 4-->

       
        <path id="path8" class="neon-stroke" d="m 324.51439,193.08425 0.50631,-89.51524 32.82959,66.4112" />
        <path id="path9" class="neon-stroke" d="m 333.43356,103.51599 32.35566,65.93299" />
        <path id="path10" class="neon-stroke" d="m 341.38221,103.90786 33.01025,65.44314 32.82323,-65.44314 0.18703,89.24956" />
        <path id="path11" class="neon-stroke" d="M 372.61571,156.71304 398.61245,103.8099" />
        <path id="path12" class="neon-stroke" d="M 368.59463,147.99382 390.19624,103.8099" />
        <path id="path13" class="neon-stroke" d="m 332.03087,193.05946 -0.0935,-65.73705" />
        <path id="path14" class="neon-stroke" d="m 339.79248,193.15742 -0.65459,-50.55189" />
        <path id="path15" class="neon-stroke" d="m 346.52545,193.05946 0.28054,-35.85658" />
        <path id="path16" class="neon-stroke" d="M 386.08164,193.15742 385.8011,157.59475" />
        <path id="path17" class="neon-stroke" d="m 392.90812,192.76555 0.46758,-50.5519" />
        <path id="path18" class="neon-stroke" d="m 400.48272,193.05945 0.0935,-63.67971" />

       <path
       class="neon-stroke"
       d="m 421.03663,103.59452 -0.39675,89.22542"
       id="path7-42" /><!--E 1-->
       <path
       class="neon-stroke"
       d="m 428.67889,103.47521 -0.39674,89.22541"
       id="path7-1" /><!--E 2-->
       <path
       class="neon-stroke"
       d="m 435.6648,103.37513 -0.39675,89.22542"
       id="path7-76" /><!--E 3-->
       <path
       class="neon-stroke"
       d="m 441.10236,105.41361 h 43.11285"
       id="path19"
       sodipodi:nodetypes="cc" /><!--E1 S-->
       <path
       class="neon-stroke"
       d="m 441.13746,113.20176 h 43.11285"
       id="path19-3"
       sodipodi:nodetypes="cc" /><!--E2 S-->
       <path
       class="neon-stroke"
       d="m 441.03705,121.14141 h 43.11286"
       id="path19-34"
       sodipodi:nodetypes="cc" /><!--E3 S-->
       <path
       class="neon-stroke"
       d="m 440.82276,175.81583 h 43.11285"
       id="path19-8"
       sodipodi:nodetypes="cc" /><!--E7 S-->
       <path
       class="neon-stroke"
       d="m 440.97337,183.65029 h 43.11286"
       id="path19-7"
       sodipodi:nodetypes="cc" /><!--E8 S-->
       <path
       class="neon-stroke"
       d="m 441.09214,191.22689 h 43.11285"
       id="path19-1"
       sodipodi:nodetypes="cc" /><!--E9 S-->
       <path
       class="neon-stroke"
       d="m 441.01985,140.51267 24.06914,0.2771"
       id="path19-5"
       sodipodi:nodetypes="cc" /><!--E4 S-->
       <path
       class="neon-stroke"
       d="m 441.17083,148.26106 24.06913,0.2771"
       id="path19-5-0"
       sodipodi:nodetypes="cc" /><!--E5 S-->
       <path
       class="neon-stroke"
       d="m 441.17083,156.06217 24.06913,0.27708"
       id="path19-5-3"
       sodipodi:nodetypes="cc" /><!--E6 S-->


       <path
       class="neon-stroke"
       d="m 555.43455,112.23521 c -9.86567,-6.71086 -14.35433,-9.11109 -20.61973,-9.99282 -6.26541,-0.88171 -9.81891,-1.22461 -13.98027,-0.9307 -4.16134,0.29391 -8.27594,1.37157 -10.70729,2.69414 -2.43135,1.32258 -5.65756,2.89008 -8.18242,5.24134 -2.52486,2.35124 -5.33026,5.78015 -6.45243,8.81719 -1.12216,3.03703 -2.10406,8.08242 -2.01054,12.09913 0.0935,4.01672 0.37406,10.13977 1.82351,13.61767 1.44946,3.47789 4.62891,7.10273 6.68621,9.0621 2.0573,1.95939 5.42379,4.35962 7.90189,5.53524 2.47811,1.17563 6.35891,1.46953 9.11756,1.56751 2.75865,0.098 6.73297,-0.098 8.18243,0 1.44947,0.098 2.85216,0.73476 3.55351,1.5675 0.70136,0.83273 1.77676,1.81242 1.68325,3.4289 -0.0935,1.61649 -0.23379,3.62485 -0.93513,4.40859 -0.70137,0.78375 -2.52487,1.91039 -3.36649,2.05735 -0.84162,0.14695 -3.55352,0.44086 -4.8627,0.39188 -1.30919,-0.049 -3.88082,0.14695 -5.23676,-0.098 -1.35594,-0.24491 -3.83404,-0.19593 -4.67567,-0.39187 -0.84162,-0.19593 -4.62892,-1.81243 -4.62892,-1.81243"
       id="path20" /><!--S1-->
       <path
       class="neon-stroke"
       d="m 492.2473,184.49899 c 9.86567,6.71085 14.35432,9.11108 20.61972,9.99281 6.26541,0.88171 9.81892,1.22461 13.98027,0.9307 4.16135,-0.2939 8.27594,-1.37156 10.7073,-2.69414 2.43135,-1.32258 5.65756,-2.89008 8.18242,-5.24133 2.52486,-2.35125 5.33027,-5.78016 6.45243,-8.81719 1.12216,-3.03704 2.10406,-8.08242 2.01054,-12.09914 -0.0935,-4.01672 -0.37405,-10.13977 -1.82351,-13.61766 -1.44946,-3.4779 -4.62892,-7.10274 -6.68621,-9.06211 -2.05731,-1.95939 -5.42379,-4.35962 -7.9019,-5.53524 -2.4781,-1.17562 -6.35891,-1.46953 -9.11755,-1.56751 -2.75865,-0.098 -6.73298,0.098 -8.18244,0 -1.44946,-0.098 -2.85215,-0.73475 -3.5535,-1.5675 -0.70136,-0.83273 -1.77676,-1.81242 -1.68325,-3.4289 0.0935,-1.61649 0.23379,-3.62485 0.93513,-4.4086 0.70136,-0.78374 2.52487,-1.91038 3.36649,-2.05734 0.84162,-0.14695 3.55352,-0.44086 4.8627,-0.39188 1.30919,0.049 3.88081,-0.14695 5.23675,0.098 1.35595,0.24493 3.83405,0.19594 4.67568,0.39188 0.84162,0.19594 4.62892,1.81242 4.62892,1.81242"
       id="path20-4" /><!--S4-->
       <path
       class="neon-stroke"
       d="m 549.54319,117.13365 c 0,0 -4.58215,-3.28196 -8.79026,-4.99641 -4.20811,-1.71445 -8.50973,-2.89007 -12.57757,-2.93907 -4.06783,-0.049 -8.13566,-0.44085 -10.98783,0.53884 -2.85216,0.97968 -6.45243,2.2043 -7.85513,3.37992 -1.4027,1.17562 -3.08594,2.40024 -4.48865,4.55554 -1.40269,2.15532 -3.03919,4.35961 -3.50675,6.61291 -0.46757,2.25328 -0.93513,5.19234 -0.79487,6.80882 0.14028,1.61648 0.51433,5.73118 0.93514,7.20071 0.42081,1.46953 2.29108,5.48625 2.85217,6.22102 0.56107,0.73476 2.52485,3.08601 3.74053,3.72281 1.21568,0.6368 3.97433,2.64515 5.33027,3.18398 1.35594,0.53883 4.76919,0.48985 5.84459,0.53883 1.0754,0.049 3.69378,-0.049 5.42379,-0.049 1.72999,0 4.02107,0 4.81593,0.14696 0.79487,0.14695 2.52486,0.53882 3.69378,1.27359 1.16892,0.73476 3.50676,2.64515 3.97432,3.52688 0.46758,0.88171 1.58973,2.40023 1.82352,3.77179 0.23379,1.37156 0.56108,4.21266 0.56108,4.99641 0,0.78375 -0.0935,3.18398 -0.18703,3.82078 -0.0935,0.6368 -0.65459,2.69415 -1.0754,3.28195 -0.42081,0.58782 -2.38459,2.59618 -3.08594,3.28196 -0.70135,0.68578 -3.08595,2.30226 -4.20811,2.79211 -1.12217,0.48984 -3.92757,0.9307 -5.19,0.9307 -1.26243,0 -2.8054,0.098 -4.95622,-0.19593 -2.1508,-0.29391 -5.18999,-0.39189 -7.43431,-0.97969 -2.24432,-0.58782 -5.09649,-1.27359 -6.45243,-2.00837 -1.35594,-0.73475 -3.55352,-2.10632 -3.55352,-2.10632"
       id="path21" /><!--S2-->
       <path
       class="neon-stroke"
       d="m 498.41765,179.3907 c 0,0 4.58215,3.28195 8.79026,4.99641 4.20811,1.71445 8.50973,2.89007 12.57756,2.93906 4.06783,0.049 8.13567,0.44086 10.98783,-0.53883 2.85217,-0.97969 6.45244,-2.2043 7.85513,-3.37992 1.40271,-1.17562 3.08595,-2.40024 4.48865,-4.55554 1.4027,-2.15532 3.03919,-4.35962 3.50675,-6.61291 0.46758,-2.25328 0.93514,-5.19234 0.79487,-6.80882 -0.14027,-1.6165 -0.51432,-5.73118 -0.93513,-7.20071 -0.42082,-1.46954 -2.29109,-5.48625 -2.85217,-6.22102 -0.56107,-0.73477 -2.52486,-3.08601 -3.74054,-3.72281 -1.21567,-0.6368 -3.97432,-2.64515 -5.33026,-3.18399 -1.35594,-0.53882 -4.76919,-0.48984 -5.84459,-0.53882 -1.07541,-0.049 -3.69378,0.049 -5.42379,0.049 -1.72999,0 -4.02108,0 -4.81594,-0.14696 -0.79487,-0.14695 -2.52487,-0.53882 -3.69378,-1.27359 -1.16892,-0.73477 -3.50676,-2.64515 -3.97432,-3.52688 -0.46757,-0.88173 -1.58973,-2.40024 -1.82352,-3.7718 -0.23378,-1.37156 -0.56108,-4.21266 -0.56108,-4.99641 0,-0.78375 0.0935,-3.18399 0.18703,-3.82077 0.0935,-0.6368 0.6546,-2.69416 1.07541,-3.28196 0.4208,-0.58782 2.38459,-2.59617 3.08594,-3.28196 0.70135,-0.68578 3.08594,-2.30227 4.20811,-2.79211 1.12215,-0.48984 3.92757,-0.9307 5.18999,-0.9307 1.26244,0 2.80541,-0.098 4.95622,0.19593 2.15081,0.29391 5.19,0.39188 7.43432,0.97969 2.24432,0.58781 5.09649,1.2736 6.45243,2.00836 1.35594,0.73476 3.55351,2.10633 3.55351,2.10633"
       id="path21-6" /><!--S3-->


       <path
       class="neon-stroke"
       d="m 709.68688,112.26794 c -9.86567,-6.71085 -14.35433,-9.11108 -20.61973,-9.99281 -6.2654,-0.88172 -9.81891,-1.22461 -13.98026,-0.9307 -4.16135,0.2939 -8.27594,1.37156 -10.70729,2.69414 -2.43135,1.32258 -5.65756,2.89008 -8.18243,5.24133 -2.52486,2.35125 -5.33026,5.78016 -6.45243,8.81719 -1.12215,3.03704 -2.10405,8.08242 -2.01053,12.09914 0.0935,4.01672 0.37405,10.13977 1.82351,13.61766 1.44945,3.4779 4.62891,7.10274 6.6862,9.06212 2.0573,1.95938 5.42379,4.35961 7.9019,5.53523 2.4781,1.17564 6.35891,1.46953 9.11756,1.56751 2.75865,0.098 6.73297,-0.098 8.18242,0 1.44947,0.098 2.85217,0.73475 3.55352,1.5675 0.70135,0.83273 1.77676,1.81242 1.68324,3.4289 -0.0935,1.61648 -0.23378,3.62485 -0.93513,4.4086 -0.70136,0.78374 -2.52487,1.91038 -3.36649,2.05734 -0.84161,0.14695 -3.55351,0.44086 -4.86269,0.39188 -1.3092,-0.049 -3.88082,0.14695 -5.23676,-0.098 -1.35595,-0.24492 -3.83405,-0.19594 -4.67568,-0.39187 -0.84161,-0.19594 -4.62892,-1.81242 -4.62892,-1.81242"
       id="path20-7" /><!--S1 2-->
       <path
       class="neon-stroke"
       d="m 646.49964,184.53172 c 9.86567,6.71086 14.35432,9.11109 20.61972,9.99282 6.2654,0.88171 9.81892,1.22461 13.98026,0.9307 4.16136,-0.29391 8.27594,-1.37157 10.7073,-2.69414 2.43135,-1.32258 5.65757,-2.89008 8.18243,-5.24134 2.52486,-2.35124 5.33026,-5.78015 6.45243,-8.81717 1.12215,-3.03704 2.10406,-8.08244 2.01053,-12.09916 -0.0935,-4.01671 -0.37405,-10.13976 -1.82351,-13.61766 -1.44945,-3.47789 -4.62892,-7.10273 -6.6862,-9.0621 -2.05731,-1.95939 -5.42379,-4.35962 -7.9019,-5.53524 -2.4781,-1.17563 -6.35892,-1.46953 -9.11756,-1.56751 -2.75865,-0.098 -6.73298,0.098 -8.18243,0 -1.44946,-0.098 -2.85215,-0.73476 -3.55351,-1.5675 -0.70135,-0.83273 -1.77676,-1.81242 -1.68324,-3.4289 0.0935,-1.61649 0.23379,-3.62485 0.93513,-4.40859 0.70135,-0.78375 2.52487,-1.9104 3.36649,-2.05735 0.84161,-0.14695 3.55351,-0.44086 4.8627,-0.39188 1.30919,0.049 3.8808,-0.14696 5.23675,0.098 1.35595,0.24493 3.83405,0.19593 4.67568,0.39188 0.84161,0.19593 4.62892,1.81242 4.62892,1.81242"
       id="path20-4-6" /><!--S4 2-->
       <path
       class="neon-stroke"
       d="m 703.79553,117.16639 c 0,0 -4.58216,-3.28195 -8.79027,-4.99641 -4.2081,-1.71446 -8.50972,-2.89008 -12.57756,-2.93907 -4.06784,-0.049 -8.13567,-0.44085 -10.98783,0.53884 -2.85216,0.97968 -6.45243,2.20428 -7.85514,3.37992 -1.40269,1.17562 -3.08594,2.40023 -4.48864,4.55555 -1.4027,2.15531 -3.03919,4.3596 -3.50676,6.61289 -0.46756,2.25328 -0.93513,5.19234 -0.79486,6.80883 0.14027,1.61648 0.51432,5.73118 0.93514,7.2007 0.4208,1.46953 2.29107,5.48625 2.85216,6.22102 0.56108,0.73478 2.52485,3.08602 3.74053,3.72282 1.21568,0.63679 3.97433,2.64515 5.33028,3.18398 1.35594,0.53883 4.76918,0.48985 5.84459,0.53883 1.0754,0.049 3.69378,-0.049 5.42378,-0.049 1.73,0 4.02107,0 4.81594,0.14696 0.79486,0.14695 2.52486,0.53882 3.69378,1.27359 1.16892,0.73476 3.50675,2.64515 3.97432,3.52688 0.46757,0.88171 1.58973,2.40023 1.82352,3.77179 0.23378,1.37157 0.56107,4.21267 0.56107,4.99641 0,0.78375 -0.0935,3.18398 -0.18702,3.82078 -0.0935,0.6368 -0.65459,2.69414 -1.07541,3.28196 -0.4208,0.5878 -2.38458,2.59617 -3.08594,3.28195 -0.70135,0.68578 -3.08595,2.30226 -4.2081,2.79212 -1.12217,0.48984 -3.92757,0.93069 -5.19,0.93069 -1.26243,0 -2.8054,0.098 -4.95622,-0.19594 -2.1508,-0.2939 -5.18999,-0.39186 -7.43431,-0.97968 -2.24433,-0.58782 -5.09649,-1.2736 -6.45243,-2.00837 -1.35595,-0.73476 -3.55352,-2.10632 -3.55352,-2.10632"
       id="path21-3" /><!--S2 2-->
       <path
       class="neon-stroke"
       d="m 652.66998,179.42344 c 0,0 4.58216,3.28195 8.79027,4.9964 4.2081,1.71446 8.50972,2.89008 12.57756,2.93908 4.06783,0.049 8.13567,0.44085 10.98782,-0.53884 2.85218,-0.97969 6.45244,-2.2043 7.85514,-3.37992 1.4027,-1.17562 3.08595,-2.40024 4.48864,-4.55555 1.40271,-2.15532 3.03919,-4.35962 3.50676,-6.6129 0.46757,-2.25328 0.93514,-5.19234 0.79486,-6.80882 -0.14026,-1.61649 -0.51431,-5.73118 -0.93513,-7.20071 -0.42081,-1.46953 -2.29108,-5.48625 -2.85216,-6.22102 -0.56108,-0.73477 -2.52486,-3.08601 -3.74054,-3.72281 -1.21567,-0.6368 -3.97432,-2.64515 -5.33026,-3.18399 -1.35595,-0.53882 -4.76919,-0.48984 -5.84459,-0.53882 -1.07541,-0.049 -3.69378,0.049 -5.42379,0.049 -1.73,0 -4.02108,0 -4.81595,-0.14695 -0.79486,-0.14696 -2.52486,-0.53882 -3.69378,-1.2736 -1.16892,-0.73477 -3.50675,-2.64515 -3.97432,-3.52687 -0.46756,-0.88171 -1.58973,-2.40024 -1.82352,-3.77181 -0.23377,-1.37155 -0.56107,-4.21265 -0.56107,-4.9964 0,-0.78375 0.0935,-3.18398 0.18702,-3.82077 0.0935,-0.6368 0.6546,-2.69415 1.07542,-3.28196 0.4208,-0.58782 2.38458,-2.59618 3.08594,-3.28195 0.70135,-0.68579 3.08594,-2.30228 4.2081,-2.79212 1.12216,-0.48984 3.92757,-0.93071 5.18999,-0.93071 1.26244,0 2.80541,-0.098 4.95622,0.19595 2.15081,0.29391 5.19,0.39187 7.43433,0.97969 2.24432,0.5878 5.09648,1.27359 6.45242,2.00835 1.35595,0.73477 3.55352,2.10633 3.55352,2.10633"
       id="path21-6-6" /><!--S3 2-->


       <path
       class="neon-stroke"
       d="m 589.74914,193.11499 0.13224,-30.34219 26.31736,-59.57597"
       id="path22"
       sodipodi:nodetypes="ccc" /><!--Y1-->
       <path
       class="neon-stroke"
       d="m 597.25909,193.25962 0.13226,-30.34219 26.31735,-59.57597"
       id="path22-7"
       sodipodi:nodetypes="ccc" /><!--Y2-->
       <path
       class="neon-stroke"
       d="m 604.66499,193.12107 0.13224,-30.34219 26.31736,-59.57597"
       id="path22-6"
       sodipodi:nodetypes="ccc" /><!--Y3-->
       <path
       class="neon-stroke"
       d="m 611.93863,193.67527 0.13224,-30.34219 26.31736,-59.57597"
       id="path22-5"
       sodipodi:nodetypes="ccc" /><!--Y4-->
       <path
       class="neon-stroke"
       d="m 563.43178,104.16667 26.58185,57.91339"
       id="path23" /><!--Y1 S-->
       <path
       class="neon-stroke"
       d="m 570.57317,104.44377 20.36619,44.75125"
       id="path24" /><!--Y2 S-->
       <path
       class="neon-stroke"
       d="m 577.84681,104.30522 16.7955,36.02268"
       id="path25" /><!--Y3 S-->
       <path
       class="neon-stroke"
       d="m 585.5172,104.30522 12.82806,27.2941"
       id="path26" /><!--Y4 S-->
       




       
       <path
       class="stac"
       d="m 509.3156,92.682726 213.08372,1.015916 47.47987,-30.439863 13.123,0.470338"
       id="path28"
       sodipodi:nodetypes="cccc" /><path
       class="stac"
       d="M 748.88637,76.779729 748.28973,54.322484 771.9958,36.449876 h 30.47924 l 22.85942,-17.872602 22.43611,-0.470331"
       id="path29"
       sodipodi:nodetypes="cccccc" /><path
       class="stac"
       d="m 731.35682,110.29194 19.89617,-15.520935 25.82268,0.940663 17.35624,-13.169286 V 60.907127 l 20.74281,-15.52095"
       id="path30"
       sodipodi:nodetypes="cccccc" /><path
       class="stac"
       d="m 794.85523,81.601719 28.78594,0.470326 34.28915,-27.279235 16.50958,-0.470326"
       id="path31" /><path
       class="stac"
       d="m 729.66353,123.93157 h 16.93291 l 16.50959,-12.22863"
       id="path32" /><path
       class="stac"
       d="m 732.20347,137.10085 c 7.19649,-0.94066 49.10543,0 49.10543,0"
       id="path33" /><path
       class="stac"
       d="m 756.33287,136.63051 31.74919,-24.92757 h 30.90257 l 14.39297,13.16929 h 19.47284"
       id="path34" /><path
       class="stac"
       d="m 807.13159,111.70294 42.75559,-33.863874 35.98243,0.470326"
       id="path35" /><path
       class="stac"
       d="m 832.53095,91.478677 h 25.39937 l 13.54632,10.817633 25.82268,-1.411 19.89618,-15.050612 30.90255,1.881326"
       id="path36" /><path
       class="stac"
       d="m 734.04608,152.58628 c 11.07537,0.66514 106.86237,-0.99772 106.86237,-0.99772 l 20.9534,-16.96132 70.94224,0.99772 22.15075,-17.29387 27.23943,-0.66515"
       id="path37" /><path
       class="stac"
       d="m 744.82212,153.25142 17.66072,14.96587 47.59417,-1.3303"
       id="path38" /><path
       class="stac"
       d="m 785.53159,167.88471 30.5321,25.27567 34.12412,-1.99544"
       id="path39" /><path
       class="stac"
       d="m 835.52043,191.83009 45.49882,35.91807 32.92678,-2.32803"
       id="path40" /><path
       class="stac"
       d="m 863.65787,213.78002 h 26.04208 L 903.17,202.1399 l 24.24608,-0.33257"
       id="path41" /><path
       class="stac"
       d="m 839.11244,152.91885 27.53876,25.94083 h 46.99549"
       id="path42" /><path
       class="stac"
       d="m 890.89729,137.95299 18.85806,14.30071 55.07753,-2.32802"
       id="path43" /><path
       class="stac"
       d="m 937.29412,152.2537 26.04208,19.95449 26.04209,0.66515"
       id="path44" /><path
       class="stac"
       d="m 730.7534,178.52711 c 2.09535,0 15.56539,0 15.56539,0 l 15.56539,12.97041 v 0 0"
       id="path45" /><path
       class="stac"
       d="m 727.12359,188.83733 22.43611,17.40227 25.39937,0.94066 18.62619,15.05061 27.51598,-0.47033 34.71246,28.69023 18.6262,-0.94066"
       id="path46" /><path
       class="stac"
       d="m 511.39834,207.19907 211.4751,-0.26338 44.46582,30.81613 12.69968,0.47033"
       id="path47"
       sodipodi:nodetypes="cccc" /><path
       class="stac"
       d="m 748.03973,224.89187 -0.17332,26.49956 19.04952,14.58029 30.47923,-1.411 23.28276,19.75393 22.4361,0.94066"
       id="path48"
       sodipodi:nodetypes="cccccc" /><path
       class="stac"
       d="m 486.69454,93.322052 -210.37446,1.617941 -45.85431,-33.449986 -13.123,0.470338"
       id="path28-6"
       sodipodi:nodetypes="cccc" /><path
       class="stac"
       d="M 251.20858,76.010957 252.05523,52.553712 228.34916,34.68111 H 197.86992 L 175.0105,16.808508 152.57439,16.338171"
       id="path29-0"
       sodipodi:nodetypes="cccccc" /><path
       class="stac"
       d="M 268.98814,108.52317 249.09197,93.002233 223.26929,93.942896 205.91305,80.77361 V 59.138355 l -20.74281,-15.52095"
       id="path30-7"
       sodipodi:nodetypes="cccccc" /><path
       class="stac"
       d="M 205.48973,79.832947 176.70379,80.303273 142.41464,53.024038 125.90506,52.553712"
       id="path31-1" /><path
       class="stac"
       d="M 270.68143,122.16279 H 253.74852 L 237.23893,109.93417"
       id="path32-7" /><path
       class="stac"
       d="m 268.14149,135.33208 c -7.19649,-0.94066 -49.10543,0 -49.10543,0"
       id="path33-7" /><path
       class="stac"
       d="M 244.01209,134.86174 212.2629,109.93417 h -30.90257 l -14.39297,13.16929 h -19.47284"
       id="path34-7" /><path
       class="stac"
       d="M 193.21337,109.93417 150.45778,76.070294 114.47534,76.54062"
       id="path35-7" /><path
       class="stac"
       d="M 167.81401,89.709905 H 142.41464 L 128.86832,100.52754 103.04564,99.116538 83.149464,84.065926 52.246912,85.947252"
       id="path36-3" /><path
       class="stac"
       d="m 266.29888,150.81751 c -11.07537,0.66514 -106.86237,-0.99772 -106.86237,-0.99772 l -20.9534,-16.96132 -70.942243,0.99772 -22.150748,-17.29387 -27.23943,-0.66516"
       id="path37-3" /><path
       class="stac"
       d="m 255.52284,151.48265 -17.66072,14.96587 -47.59417,-1.3303"
       id="path38-5" /><path
       class="stac"
       d="m 214.81337,166.11594 -30.5321,25.27567 -34.12412,-1.99544"
       id="path39-9" /><path
       class="stac"
       d="m 164.82453,190.06132 -45.49882,35.91807 -32.926785,-2.32803"
       id="path40-9" /><path
       class="stac"
       d="M 136.68709,212.01125 H 110.64501 L 97.174963,200.37113 72.92888,200.03856"
       id="path41-8" /><path
       class="stac"
       d="m 161.23252,151.15008 -27.53876,25.94083 H 86.698266"
       id="path42-1" /><path
       class="stac"
       d="M 109.44767,136.18422 90.589605,150.48493 35.512084,148.15691"
       id="path43-8" /><path
       class="stac"
       d="m 63.050845,150.48493 -26.042087,19.95448 -26.042087,0.66516"
       id="path44-2" /><path
       class="stac"
       d="m 269.59156,176.75834 c -2.09535,0 -15.56539,0 -15.56539,0 l -15.56539,12.97041 v 0 0"
       id="path45-6" /><path
       class="stac"
       d="m 273.22137,187.06856 -22.43611,17.40226 -25.39937,0.94067 -18.6262,15.05061 -27.51597,-0.47033 -34.71246,28.69023 -18.6262,-0.94067"
       id="path46-6" /><path
       class="stac"
       d="m 488.94662,205.43029 -211.4751,0.94068 -44.46582,29.61208 -12.69968,0.47032"
       id="path47-0"
       sodipodi:nodetypes="cccc" />
       <path
       class="stac"
       d="m 252.05523,223.3731 0.42332,26.24956 -19.04952,14.58029 -30.47923,-1.411 -23.28276,19.75392 -22.4361,0.94067"
       id="path48-3"
       sodipodi:nodetypes="cccccc" />
       <path
       class="stac"
       d="m 276.91143,77.406355 447.4013,-1.204049"
       id="path49"
       sodipodi:nodetypes="cc" /><path
       class="stac"
       d="m 279.79002,246.08609 442.69396,0.15051"
       id="path50"
       sodipodi:nodetypes="cc" />

       <path
       class="neon-stroke"
       d="m 644.19113,227.37733 h 82.50785"
       id="path19-3-2"
       sodipodi:nodetypes="cc" /><!--CENTRO3-->
       <path
       class="neon-stroke"
       d="m 276.37211,227.61997 h 79.90323"
       id="path19-3-4"
       sodipodi:nodetypes="cc" /><!--CENTRO2-->

       <text
            xml:space="preserve"
            class="neon-stroke"
            x="440"  y="209.04141"
            id="text50"
            transform="scale(0.89203417,1.1210333)">
            <tspan
                sodipodi:role="line"
                id="tspan50"
                x="440"  y="209.04141"
                style="fill:#00ffff;fill-opacity:1;stroke-width:0.209056;stroke-linejoin:round;stroke-dasharray:none">
            </tspan>
        </text>

    </svg>